<svg class="hidden" id="Layer_1" data-name="Layer 1" xmlns="http://www.w3.org/2000/svg" viewBox="0 0 666 157.94">
    <defs>
        <style>
                                    .cls-1 {
                                        fill: #6d6e71;
                                    }
                                    .cls-2 {
                                        fill: #39b54a;
                                    }
                                </style>
    </defs>
    <path class="cls-1" d="M169.42 340.89a62.35 62.35 0 1 1 0-88.17 62.27 62.27 0 0 1 0 88.17ZM100 271.47a35.67 35.67 0 0 0-.23 50.65 36 36 0 0 0 50.89-50.89 35.67 35.67 0 0 0-50.66.24Z" transform="translate(-63 -227.03)" />
    <path class="cls-1" d="M229.25 251.09q-3.82 3-3.82 10.34v12h18.94v19.81h-18.95v66.2H202v-66.2h-12.19v-19.82H202v-14.07q0-16.16 8.86-24.24t24.29-8.11a42.63 42.63 0 0 1 12.85 1.94v19.63a51.79 51.79 0 0 0-6.95-.52q-7.98 0-11.8 3.04Z" transform="translate(-63 -227.03)" />
    <path class="cls-1" d="M283.33 251.09q-3.82 3-3.82 10.34v12h18.94v19.81h-18.94v66.2h-23.46v-66.2h-12.16v-19.82h12.16v-14.07q0-16.16 8.86-24.24t24.33-8.11a42.63 42.63 0 0 1 12.86 1.91v19.63a51.79 51.79 0 0 0-6.95-.52q-7.99.03-11.82 3.07Z" transform="translate(-63 -227.03)" />
    <path class="cls-2" d="m363.1 284.37-11.81 14.42q-8.69-8.17-19.29-8.17-9.21 0-9.21 6.08a5.1 5.1 0 0 0 2 4.08 26.54 26.54 0 0 0 7 3.56l8.34 3.48q12.51 5 18.33 10.86t5.82 15.38q0 12.86-9.47 20.16t-24.06 7.3q-22.94 0-35.62-16.68L307 330.58q11.29 11.64 24.15 11.64a15.31 15.31 0 0 0 7.82-1.82 5.8 5.8 0 0 0 3.13-5.3 5 5 0 0 0-2-4.26 37.08 37.08 0 0 0-6.86-3.56l-9.24-3.82q-11.82-4.86-17.64-10.77t-5.82-15.46q0-12.16 8.77-19t22.85-6.86q19.3-.04 30.94 13ZM429.09 339.79v19.63a66.54 66.54 0 0 1-16.16 2.09q-16.33 0-25.37-8.08t-9-24.24v-36H365v-19.77h13.55V251.7H402v21.72h24.33v19.81H402v33.88q0 7.3 3.82 10.34t12.16 3q2.07.04 11.11-.66ZM490.43 273.42v20.68h-6.25q-10.6 0-16.85 5.65t-6.25 16.77v42.92h-23.47v-86h21.55v10.43q8.86-11.47 23.63-11.47a25.42 25.42 0 0 1 7.64 1.02ZM573.88 324.33h-60.46a21.92 21.92 0 0 0 8.6 12.6q6.34 4.43 15.72 4.43 12.68 0 24-8.69l9.73 16q-15.29 12.86-34.4 12.86-20.33 0-33.71-12.95T490 316.51q0-18.94 12.95-32t32.06-13q17.9 0 29.19 11.47t11.29 28.5a55.7 55.7 0 0 1-1.61 12.85Zm-52.82-29.19a24 24 0 0 0-7.65 12.68h39.27q-.17-8-5.56-12.68a19.16 19.16 0 0 0-13-4.69 19.57 19.57 0 0 0-13.06 4.69ZM663.29 324.33h-60.46a21.92 21.92 0 0 0 8.6 12.6q6.34 4.43 15.72 4.43 12.68 0 24-8.69l9.73 16q-15.29 12.86-34.4 12.86-20.33 0-33.71-12.95t-13.38-32.06q0-18.94 12.95-32t32.06-13q17.9 0 29.19 11.47t11.29 28.5a55.7 55.7 0 0 1-1.59 12.84Zm-52.82-29.19a24 24 0 0 0-7.65 12.68h39.27q-.17-8-5.56-12.68a19.16 19.16 0 0 0-13-4.69 19.57 19.57 0 0 0-13.06 4.69ZM729 339.79v19.63a66.54 66.54 0 0 1-16.16 2.09q-16.33 0-25.37-8.08t-9-24.24v-36h-13.58v-19.77h13.55V251.7h23.46v21.72h24.33v19.81h-24.34v33.88q0 7.3 3.82 10.34t12.16 3q2.13.04 11.13-.66ZM125.33 364.57a67.52 67.52 0 0 1-25.33-4.89L125.33 385l25.29-25.29a67.52 67.52 0 0 1-25.29 4.86ZM150.38 284.84a33.64 33.64 0 0 0-3.46 0 1.27 1.27 0 0 1-1.5-1c-.63-1.93-1.33-3.83-2.07-5.72a7.91 7.91 0 0 0-7.79-5.3h-20.33a8 8 0 0 0-7.95 5.47c-.7 1.85-1.39 3.71-2 5.59a1.21 1.21 0 0 1-1.4 1c-1.2-.06-2.4 0-3.6 0-1.58 0-1.48 1.16-1.49 2.26s.26 1.82 1.54 1.77h2.88c-2.18 2.73-2.14 5.64-2.13 8.56v15.36c0 3.72.09 3.8 3.78 3.74 1.46 0 2-.52 2-2v-3.61h37v3.53c0 1.58.52 2.07 2.06 2.09h.42c3.12 0 3.3-.18 3.3-3.25v-14.66c0-3.3.33-6.67-2.06-9.74h2.73c1.22.07 1.61-.56 1.62-1.69.01-1.94-.2-2.34-1.55-2.4Zm-41.6-1 1.85-5c.58-1.58 2.84-2.79 5.06-2.79h19c2.22 0 4.48 1.2 5.06 2.79l1.85 5c.81 2.2-.88 4.16-3.82 4.16H112.6c-2.94 0-4.6-2-3.81-4.16Zm5.52 15.91a1.65 1.65 0 0 1-1.65 1.65h-4.93a1.65 1.65 0 0 1-1.65-1.65v-1.35a1.65 1.65 0 0 1 1.65-1.65h4.93a1.65 1.65 0 0 1 1.65 1.65v1.35Zm18 7h-14c-1.42 0-1.65-.79-1.64-2s.07-2.15 1.62-2.13h13.98c1.45 0 1.69.33 1.69 2s-.19 2.17-1.63 2.17Zm12.37-7a1.65 1.65 0 0 1-1.67 1.65h-4.9a1.65 1.65 0 0 1-1.65-1.65v-1.35a1.65 1.65 0 0 1 1.65-1.65h4.9a1.65 1.65 0 0 1 1.65 1.65v1.35Z" transform="translate(-63 -227.03)" />
</svg>