<?xml version="1.0" encoding="UTF-8"?>
<svg width="763.46" height="206.66" version="1.1" viewBox="0 0 202 54.68" xmlns="http://www.w3.org/2000/svg" xmlns:cc="http://creativecommons.org/ns#" xmlns:dc="http://purl.org/dc/elements/1.1/" xmlns:rdf="http://www.w3.org/1999/02/22-rdf-syntax-ns#">
<defs>
<linearGradient id="g" x2="1" gradientTransform="matrix(924.72 0 0 -924.72 160.43 3414.5)" gradientUnits="userSpaceOnUse">
<stop stop-color="#f7d109" offset="0"/>
<stop stop-color="#61c9b2" offset="1"/>
</linearGradient>
<linearGradient id="f" x2="1" gradientTransform="matrix(1016 0 0 -1016 109.98 3391.1)" gradientUnits="userSpaceOnUse">
<stop stop-color="#302b6d" offset="0"/>
<stop stop-color="#302b6d" offset=".0022115"/>
<stop stop-color="#ec008c" offset=".51565"/>
<stop stop-color="#ec008c" offset="1"/>
</linearGradient>
<linearGradient id="e" x2="1" gradientTransform="matrix(1015.8 0 0 -1015.8 54.229 3391.2)" gradientUnits="userSpaceOnUse">
<stop stop-color="#ea2c35" offset="0"/>
<stop stop-color="#ee5233" offset=".11236"/>
<stop stop-color="#f3822f" offset=".33146"/>
<stop stop-color="#f9c308" offset=".7191"/>
<stop stop-color="#fff424" offset="1"/>
</linearGradient>
<linearGradient id="d" x2="1" gradientTransform="matrix(568.44 0 0 -568.44 1237.2 3608.9)" gradientUnits="userSpaceOnUse">
<stop stop-color="#f7d109" offset="0"/>
<stop stop-color="#61c9b2" offset="1"/>
</linearGradient>
<linearGradient id="c" x2="1" gradientTransform="matrix(613.34 0 0 -613.34 1218.1 3622.5)" gradientUnits="userSpaceOnUse">
<stop stop-color="#ec008c" offset="0"/>
<stop stop-color="#ec008c" offset=".48435"/>
<stop stop-color="#302b6d" offset=".99779"/>
<stop stop-color="#302b6d" offset="1"/>
</linearGradient>
<linearGradient id="b" x2="1" gradientTransform="matrix(618.96 0 0 -618.96 1250.7 3622.5)" gradientUnits="userSpaceOnUse">
<stop stop-color="#fff424" offset="0"/>
<stop stop-color="#f9c308" offset=".2809"/>
<stop stop-color="#f3822f" offset=".66854"/>
<stop stop-color="#ee5233" offset=".88764"/>
<stop stop-color="#ea2c35" offset="1"/>
</linearGradient>
<linearGradient id="a" x2="1" gradientTransform="matrix(1912.8 0 0 -1912.8 0 3391.2)" gradientUnits="userSpaceOnUse">
<stop stop-color="#f7d109" offset="0"/>
<stop stop-color="#f7d109" offset=".0021908"/>
<stop stop-color="#61c9b2" offset="1"/>
</linearGradient>
<clipPath id="n">
<path d="m1034.7 3181.2-3.8-7.27-89.686 45.76 3.632 7.43c43.77 85.88 51.532 183.82 21.637 275.66-29.894 91.99-93.648 166.65-179.54 210.42-85.883 43.76-183.83 51.53-275.82 21.63-91.828-29.89-166.65-93.65-210.42-179.53-90.512-177.55-19.656-395.73 158.06-486.24l7.266-3.8-45.75-89.69-7.266 3.64c-109.84 55.99-191.42 151.62-229.58 269.21-38.32 117.44-28.41 242.8 27.418 352.63 115.78 227.1 394.74 317.77 621.84 202 109.84-56 191.42-151.46 229.58-269.06 38.15-117.59 28.41-242.79-27.58-352.79z"/>
</clipPath>
<clipPath id="m">
<path d="m1126 3489.7-107.69-22.96-1.81 8.09c-46.082 217.03-260.3 356.26-477.33 310.02-217.19-46.08-356.26-260.3-310.18-477.49 46.246-217.03 260.46-356.1 477.49-310.02l8.094 1.82 22.957-107.85-8.094-1.65c-35.675-7.6-71.679-11.4-107.36-11.4-97.945 0-194.07 28.24-278.47 83.08-114.95 74.65-193.9 189.44-222.31 323.22-28.411 133.79-2.973 270.71 71.679 385.66 74.657 114.96 189.44 194.07 323.23 222.48 276.48 58.8 549.34-118.42 608.14-394.91z"/>
</clipPath>
<clipPath id="l">
<path d="m1070 3039.7-5.12-6.45c-95.464-117.92-231.39-191.59-382.69-207.44-20.312-2.15-40.629-3.14-60.777-3.14-129.82 0-254.52 43.93-356.59 126.52-243.78 197.37-281.44 556.27-84.07 799.89 95.464 117.92 231.39 191.59 382.69 207.44 151.12 16.02 299.44-27.91 417.2-123.38l6.442-5.12-75.813-93.64-6.437 5.12c-192.09 155.58-474.85 125.85-630.43-66.23-75.148-92.83-109.67-209.76-97.117-328.85 12.555-119.24 70.527-226.27 163.35-301.59 192.08-155.58 475.01-125.85 630.43 66.24l5.285 6.44z"/>
</clipPath>
<clipPath id="k">
<path d="m1774.6 3493.5c-34.35-67.56-93.15-117.6-165.32-141.22-29.07-9.41-58.8-14.04-88.37-14.04-44.26 0-88.03 10.41-128.5 31.05-139.56 71.19-195.38 242.63-124.2 382.19l3.8 7.44 87.37-44.43-3.8-7.44c-22.62-44.26-26.42-94.63-11.06-142.04 15.36-47.4 48.22-85.88 92.32-108.35 91.5-46.57 203.82-10.07 250.56 81.27 46.57 91.5 10.07 203.81-81.43 250.55l-7.43 3.63 44.59 87.38 7.27-3.8c67.55-34.36 117.76-93.16 141.22-165.33 23.45-72.34 17.5-149.31-17.02-216.86z"/>
</clipPath>
<clipPath id="j">
<path d="m1218.1 3558.1 89.58 19.04c25.04-117.83 141.28-193.32 259.1-168.27 117.83 25.04 193.32 141.28 168.28 259.12-25.05 117.83-141.29 193.31-259.12 168.27l-19.04 89.58c167.22 35.54 332.19-71.59 367.73-238.81 35.55-167.22-71.59-332.2-238.81-367.74s-332.18 71.59-367.72 238.81z"/>
</clipPath>
<clipPath id="i">
<path d="m1302.2 3351.8 64.76 79.96c105.19-85.18 260.07-68.9 345.24 36.28 85.18 105.19 68.9 260.06-36.29 345.25-105.19 85.18-260.07 68.9-345.25-36.29l-79.96 64.75c120.88 149.28 340.69 172.39 489.97 51.5 149.28-120.88 172.38-340.69 51.49-489.97-120.88-149.28-340.68-172.37-489.96-51.48z"/>
</clipPath>
<clipPath id="h">
<path d="m1130 3622.5c0 215.82 175.6 391.42 391.43 391.42 215.82 0 391.42-175.6 391.42-391.42 0-215.83-175.6-391.41-391.42-391.41v115.61c152.08 0 275.81 123.73 275.81 275.8 0 152.08-123.73 275.81-275.81 275.81-152.09 0-275.82-123.73-275.82-275.81v-231.38c0-343.41-279.39-622.8-622.8-622.8s-622.79 279.39-622.79 622.8 279.38 622.8 622.79 622.8v-115.61c-279.66 0-507.18-227.52-507.18-507.19s227.52-507.19 507.18-507.19c279.67 0 507.19 227.52 507.19 507.19z"/>
</clipPath>
</defs>
<metadata>
<rdf:RDF>
<cc:Work rdf:about="">
<dc:format>image/svg+xml</dc:format>
<dc:type rdf:resource="http://purl.org/dc/dcmitype/StillImage"/>
<dc:title/>
</cc:Work>
</rdf:RDF>
</metadata>
<g transform="translate(-2.7014 -.81711)">
<g transform="matrix(.035278 0 0 -.035278 7.993 147.71)">
<g clip-path="url(#n)">
<path d="m1034.7 3181.2-3.8-7.27-89.686 45.76 3.632 7.43c43.77 85.88 51.532 183.82 21.637 275.66-29.894 91.99-93.648 166.65-179.54 210.42-85.883 43.76-183.83 51.53-275.82 21.63-91.828-29.89-166.65-93.65-210.42-179.53-90.512-177.55-19.656-395.73 158.06-486.24l7.266-3.8-45.75-89.69-7.266 3.64c-109.84 55.99-191.42 151.62-229.58 269.21-38.32 117.44-28.41 242.8 27.418 352.63 115.78 227.1 394.74 317.77 621.84 202 109.84-56 191.42-151.46 229.58-269.06 38.15-117.59 28.41-242.79-27.58-352.79" fill="url(#g)"/>
</g>
</g>
<g transform="matrix(.035278 0 0 -.035278 7.993 147.71)">
<g clip-path="url(#m)">
<path d="m1126 3489.7-107.69-22.96-1.81 8.09c-46.082 217.03-260.3 356.26-477.33 310.02-217.19-46.08-356.26-260.3-310.18-477.49 46.246-217.03 260.46-356.1 477.49-310.02l8.094 1.82 22.957-107.85-8.094-1.65c-35.675-7.6-71.679-11.4-107.36-11.4-97.945 0-194.07 28.24-278.47 83.08-114.95 74.65-193.9 189.44-222.31 323.22-28.411 133.79-2.973 270.71 71.679 385.66 74.657 114.96 189.44 194.07 323.23 222.48 276.48 58.8 549.34-118.42 608.14-394.91l1.65-8.09" fill="url(#f)"/>
</g>
</g>
<g transform="matrix(.035278 0 0 -.035278 7.993 147.71)">
<g clip-path="url(#l)">
<path d="m1070 3039.7-5.12-6.45c-95.464-117.92-231.39-191.59-382.69-207.44-20.312-2.15-40.629-3.14-60.777-3.14-129.82 0-254.52 43.93-356.59 126.52-243.78 197.37-281.44 556.27-84.07 799.89 95.464 117.92 231.39 191.59 382.69 207.44 151.12 16.02 299.44-27.91 417.2-123.38l6.442-5.12-75.813-93.64-6.437 5.12c-192.09 155.58-474.85 125.85-630.43-66.23-75.148-92.83-109.67-209.76-97.117-328.85 12.555-119.24 70.527-226.27 163.35-301.59 192.08-155.58 475.01-125.85 630.43 66.24l5.285 6.44 93.647-75.81" fill="url(#e)"/>
</g>
</g>
<g transform="matrix(.035278 0 0 -.035278 7.993 147.71)">
<g clip-path="url(#k)">
<path d="m1774.6 3493.5c-34.35-67.56-93.15-117.6-165.32-141.22-29.07-9.41-58.8-14.04-88.37-14.04-44.26 0-88.03 10.41-128.5 31.05-139.56 71.19-195.38 242.63-124.2 382.19l3.8 7.44 87.37-44.43-3.8-7.44c-22.62-44.26-26.42-94.63-11.06-142.04 15.36-47.4 48.22-85.88 92.32-108.35 91.5-46.57 203.82-10.07 250.56 81.27 46.57 91.5 10.07 203.81-81.43 250.55l-7.43 3.63 44.59 87.38 7.27-3.8c67.55-34.36 117.76-93.16 141.22-165.33 23.45-72.34 17.5-149.31-17.02-216.86" fill="url(#d)"/>
</g>
</g>
<g transform="matrix(.035278 0 0 -.035278 7.993 147.71)">
<g clip-path="url(#j)">
<path d="m1218.1 3558.1 89.58 19.04c25.04-117.83 141.28-193.32 259.1-168.27 117.83 25.04 193.32 141.28 168.28 259.12-25.05 117.83-141.29 193.31-259.12 168.27l-19.04 89.58c167.22 35.54 332.19-71.59 367.73-238.81 35.55-167.22-71.59-332.2-238.81-367.74s-332.18 71.59-367.72 238.81" fill="url(#c)"/>
</g>
</g>
<g transform="matrix(.035278 0 0 -.035278 7.993 147.71)">
<g clip-path="url(#i)">
<path d="m1302.2 3351.8 64.76 79.96c105.19-85.18 260.07-68.9 345.24 36.28 85.18 105.19 68.9 260.06-36.29 345.25-105.19 85.18-260.07 68.9-345.25-36.29l-79.96 64.75c120.88 149.28 340.69 172.39 489.97 51.5 149.28-120.88 172.38-340.69 51.49-489.97-120.88-149.28-340.68-172.37-489.96-51.48" fill="url(#b)"/>
</g>
</g>
<g transform="matrix(.035278 0 0 -.035278 7.993 147.71)">
<g clip-path="url(#h)">
<path d="m1130 3622.5c0 215.82 175.6 391.42 391.43 391.42 215.82 0 391.42-175.6 391.42-391.42 0-215.83-175.6-391.41-391.42-391.41v115.61c152.08 0 275.81 123.73 275.81 275.8 0 152.08-123.73 275.81-275.81 275.81-152.09 0-275.82-123.73-275.82-275.81v-231.38c0-343.41-279.39-622.8-622.8-622.8s-622.79 279.39-622.79 622.8 279.38 622.8 622.79 622.8v-115.61c-279.66 0-507.18-227.52-507.18-507.19s227.52-507.19 507.18-507.19c279.67 0 507.19 227.52 507.19 507.19v231.38" fill="url(#a)"/>
</g>
</g>
<path d="m114.37 44.559c0-1.1098-0.0219-1.2421-0.48366-1.2968l-0.34043-0.0441c-0.0991-0.0543-0.0991-0.29668 0.0222-0.37359 0.7246-0.0543 1.5818-0.0984 2.5375-0.0984 0.93415 0 1.5494 0.10971 2.0108 0.2854 0.67028 0.25258 1.3406 0.83537 1.3406 1.9011 0 1.8016-1.8129 2.0655-2.3954 2.0655-0.13158 0-0.23071 0-0.35136-0.0113-0.0878-0.0547-0.11007-0.23107-0.0328-0.29669 0.91158-0.28539 1.0986-0.93415 1.0986-1.7473 0-0.8128-0.41769-1.6916-1.4065-1.6916-0.4064 0-0.42862 0.121-0.42862 0.56021v4.6369c0 1.0216 0.0663 1.1098 0.56056 1.1867l0.35137 0.0547c0.12136 0.055 0.12136 0.30763 0 0.37359-0.61524-0.0219-1.1536-0.0332-1.681-0.0332-0.5274 0-1.0548 0.0113-1.6478 0.0332-0.121-0.066-0.14288-0.31855-0.0222-0.37359l0.30798-0.0547c0.49424-0.0882 0.56021-0.1651 0.56021-1.1867v-3.8894" fill="#61c9b1"/>
<path d="m122.52 46.965c0.25259 0 0.30727-0.0328 0.21943-0.31891l-0.28575-0.89006c-0.15381-0.47237-0.35136-1.0657-0.45014-1.2958-0.0882 0.25258-0.30798 0.84596-0.47272 1.3511l-0.27447 0.82409c-0.0991 0.29669-0.0441 0.3295 0.23037 0.3295zm-1.2531 0.58208c-0.26317 0-0.29634 0.0113-0.36231 0.21978l-0.42862 1.2749c-0.0656 0.21978-0.0769 0.30727-0.0769 0.39546 0 0.0656 0.14288 0.13124 0.4505 0.18662l0.32985 0.0554c0.0656 0.0762 0.0875 0.32949-0.0222 0.38417-0.38452-0.0219-0.77999-0.0219-1.2414-0.0332-0.37395 0-0.62654 0.0332-1.1321 0.0332-0.12065-0.066-0.10971-0.29668-0.0328-0.38417l0.29668-0.0335c0.26388-0.0332 0.48366-0.12065 0.67028-0.54928 0.18697-0.43956 0.39582-0.96696 0.6925-1.7579l0.99978-2.6811c0.25258-0.6918 0.43956-1.0767 0.4064-1.3952 0.5274-0.121 0.9338-0.65899 0.95602-0.65899 0.14253 0 0.20885 0.0547 0.25259 0.21978 0.0882 0.31821 0.21943 0.72496 0.4946 1.505l1.494 4.3074c0.23072 0.65899 0.32985 0.91158 0.73625 0.97719l0.41733 0.0667c0.066 0.0543 0.0882 0.31821-0.0109 0.38417-0.52705-0.0219-1.1204-0.0332-1.6923-0.0332-0.54892 0-0.97754 0.0113-1.4827 0.0332-0.12101-0.066-0.14323-0.29668-0.0222-0.38417l0.35172-0.0554c0.25259-0.0441 0.29669-0.121 0.29669-0.18662 0-0.0772-0.0769-0.34078-0.20885-0.74753l-0.29668-0.94439c-0.055-0.17639-0.14288-0.19826-0.52741-0.19826h-1.3077" fill="#61c9b1"/>
<path d="m128.96 45.954c0 0.38488 0.0328 0.41769 0.68086 0.41769 0.39582 0 0.62654-0.0984 0.83538-0.30763 0.18662-0.18697 0.39547-0.53798 0.39547-1.1867 0-0.98884-0.58244-1.626-1.4397-1.626-0.45015 0-0.47202 0.0328-0.47202 0.56021zm-1.5056-1.3949c0-1.0986-0.0215-1.2196-0.48331-1.2855l-0.29669-0.0441c-0.10971-0.0554-0.10971-0.32949 0.0219-0.38488 0.82444-0.0543 1.681-0.0984 2.7252-0.0984 0.9338 0 1.7357 0.14252 2.1534 0.39511 0.63712 0.37359 0.96661 0.92287 0.96661 1.6263 0 0.9779-0.65899 1.3949-1.1645 1.6482-0.10971 0.0547-0.10971 0.12065-0.055 0.24166 0.72531 1.4721 1.1758 2.2962 1.7032 2.7467 0.28575 0.23107 0.57115 0.29669 0.73625 0.30798 0.0988 0.0547 0.0988 0.21978 0.0437 0.2854-0.17533 0.0769-0.52705 0.0988-0.86783 0.0988-1.0107 0-1.6482-0.36265-2.1315-1.1539-0.35172-0.58209-0.60431-1.1201-0.8569-1.7029-0.13194-0.29669-0.30798-0.38418-0.58244-0.38418-0.38453 0-0.4064 0.0215-0.4064 0.2413v1.3518c0 1.0104 0.0656 1.0873 0.56021 1.1754l0.29669 0.0554c0.0765 0.0543 0.0765 0.31821 0 0.38417-0.58244-0.0219-1.088-0.0332-1.615-0.0332-0.54927 0-1.0329 0.0113-1.6041 0.0332-0.0882-0.066-0.0882-0.32984 0-0.38417l0.29669-0.0554c0.49424-0.0882 0.55986-0.1651 0.55986-1.1754v-3.8894" fill="#61c9b1"/>
<path d="m136.05 43.603c0-0.26353 0-0.31892-0.26387-0.31892h-0.68122c-0.80221 0-1.0329 0.43921-1.3624 1.2418-0.13194 0.066-0.34044 0.0441-0.40676-0.0991 0.23107-0.75777 0.28611-1.4393 0.36301-1.8676 0.0438-0.0328 0.0984-0.0554 0.15346-0.0554 0.055 0 0.11007 0.0113 0.15416 0.0441 0.0547 0.18697 0.0875 0.23107 0.92287 0.23107h4.0873c0.72496 0 0.89006-0.0113 0.98884-0.24201 0.0441-0.0219 0.0769-0.0332 0.14252-0.0332 0.066 0 0.14288 0.0441 0.16545 0.0773-0.11006 0.37359-0.18697 1.2636-0.16545 1.8898-0.0543 0.0991-0.35101 0.121-0.4064 0.0328-0.18662-0.70309-0.34078-1.2196-1.1642-1.2196h-0.66005c-0.26353 0-0.29634 0.0328-0.29634 0.31892v4.8454c0 1.0216 0.0663 1.1098 0.56022 1.1754l0.43956 0.0554c0.0769 0.0656 0.0769 0.31821 0 0.38417-0.71367-0.0219-1.2636-0.0332-1.7575-0.0332-0.52776 0-1.0986 0.0113-1.868 0.0332-0.0882-0.066-0.0882-0.31855 0-0.38417l0.49424-0.0554c0.4946-0.0554 0.56056-0.15381 0.56056-1.1754v-4.8454" fill="#61c9b1"/>
<path d="m147.83 48.162c0 0.71437 0 1.4062 0.0222 1.7695-0.0769 0.13158-0.38452 0.25259-0.6484 0.25259-0.0106 0-0.37359-0.56057-0.89006-1.198l-2.5379-3.1422c-0.63747-0.77999-0.99978-1.2414-1.1977-1.4065-0.0547 0.11006-0.0547 0.29668-0.0547 0.70344v2.1318c0 0.88936 0.0441 1.7134 0.1644 2.0101 0.0995 0.23107 0.35207 0.30798 0.63747 0.35207l0.30797 0.0441c0.0875 0.0875 0.0656 0.31821 0 0.38417-0.59337-0.0219-1.0329-0.0332-1.4721-0.0332-0.40675 0-0.81315 0.0113-1.2308 0.0332-0.0656-0.066-0.0882-0.29668 0-0.38417l0.18697-0.0335c0.29634-0.0547 0.51612-0.13159 0.6036-0.36266 0.12101-0.29669 0.15417-1.1208 0.15417-2.0101v-2.7912c0-0.6043-0.0106-0.77999-0.0773-0.9338-0.0875-0.18697-0.2413-0.31856-0.62618-0.37394l-0.30692-0.0437c-0.0773-0.0875-0.0667-0.35136 0.043-0.38417 0.51717 0.0215 1.0664 0.0328 1.517 0.0328 0.37324 0 0.69215-0.0113 0.92286-0.0328 0.11007 0.49389 0.82374 1.3293 1.8129 2.5047l0.92286 1.088c0.48366 0.57114 0.80187 0.95567 1.0545 1.2083 0.0441-0.10971 0.0441-0.29633 0.0441-0.49459v-1.5162c0-0.89006-0.0441-1.7134-0.1651-2.0101-0.0984-0.23072-0.34008-0.30798-0.63677-0.35207l-0.29669-0.0437c-0.0878-0.0875-0.0663-0.31856 0-0.38417 0.59338 0.0215 1.0216 0.0328 1.4722 0.0328 0.40675 0 0.80186-0.0113 1.2308-0.0328 0.066 0.0656 0.0875 0.29668 0 0.38417l-0.19791 0.0335c-0.2854 0.0434-0.49459 0.13158-0.59337 0.3623-0.121 0.29669-0.1651 1.1201-0.1651 2.0101v2.6261" fill="#61c9b1"/>
<path d="m152.04 45.636c0 0.30692 0.0106 0.3295 0.30692 0.3295h0.75847c0.5708 0 0.70274-0.0773 0.8128-0.60466l0.0543-0.27411c0.0769-0.0882 0.35172-0.0882 0.4064 0.0106-0.0215 0.35172-0.0328 0.74683-0.0328 1.1645s0.0113 0.8128 0.0328 1.1638c-0.0547 0.0995-0.32949 0.11006-0.4064 0.0113l-0.0543-0.27481c-0.11006-0.5267-0.242-0.61489-0.8128-0.61489h-0.75847c-0.29633 0-0.30692 0.0113-0.30692 0.34078v1.307c0 0.50518 0.0441 0.8562 0.17569 1.0432 0.14252 0.19791 0.35101 0.2861 1.1532 0.2861 0.95532 0 1.3289-0.0332 1.9332-1.2746 0.0875-0.121 0.3623-0.0769 0.4064 0.0554-0.0441 0.57079-0.30762 1.4605-0.46143 1.7568-0.58209-0.0215-1.6369-0.0328-2.5372-0.0328h-1.428c-0.5274 0-1.0654 0.0113-1.8895 0.0328-0.0875-0.0656-0.0875-0.32949 0-0.38382l0.51646-0.0769c0.49425-0.0769 0.56021-0.14358 0.56021-1.1536v-4.0975c0-0.99942-0.066-1.065-0.56021-1.1638l-0.27446-0.055c-0.0991-0.066-0.0882-0.31856 0.0219-0.38417 0.51612 0.0215 1.0548 0.0328 1.5815 0.0328h2.3283c0.70309 0 1.3296-0.0113 1.4725-0.0328 0.0106 0.17568 0.0875 0.96661 0.14252 1.7025-0.0441 0.121-0.29634 0.14252-0.4064 0.0441-0.12101-0.38488-0.27482-0.71438-0.41734-0.86819-0.20849-0.20849-0.53798-0.34043-1.0767-0.34043h-0.87841c-0.36231 0-0.36231 0.0222-0.36231 0.42863v1.9223" fill="#61c9b1"/>
<path d="m158.81 45.954c0 0.38488 0.0335 0.41769 0.68157 0.41769 0.39511 0 0.62618-0.0984 0.83537-0.30763 0.18592-0.18697 0.39511-0.53798 0.39511-1.1867 0-0.98884-0.58208-1.626-1.439-1.626-0.45085 0-0.47307 0.0328-0.47307 0.56021zm-1.505-1.3949c0-1.0986-0.0219-1.2196-0.48366-1.2855l-0.29669-0.0441c-0.10971-0.0554-0.10971-0.32949 0.0226-0.38488 0.82339-0.0543 1.6806-0.0984 2.7245-0.0984 0.93415 0 1.736 0.14252 2.1537 0.39511 0.63712 0.37359 0.96697 0.92287 0.96697 1.6263 0 0.9779-0.65934 1.3949-1.1652 1.6482-0.10971 0.0547-0.10971 0.12065-0.0543 0.24166 0.72461 1.4721 1.1755 2.2962 1.7029 2.7467 0.2854 0.23107 0.57115 0.29669 0.73625 0.30798 0.0984 0.0547 0.0984 0.21978 0.0441 0.2854-0.17639 0.0769-0.52776 0.0988-0.86854 0.0988-1.0111 0-1.6478-0.36265-2.1311-1.1539-0.35207-0.58209-0.60466-1.1201-0.85725-1.7029-0.13229-0.29669-0.30762-0.38418-0.58209-0.38418-0.38488 0-0.4071 0.0215-0.4071 0.2413v1.3518c0 1.0104 0.0663 1.0873 0.56021 1.1754l0.29669 0.0554c0.0772 0.0543 0.0772 0.31821 0 0.38417-0.58209-0.0219-1.0873-0.0332-1.6147-0.0332-0.54927 0-1.0329 0.0113-1.6044 0.0332-0.0875-0.066-0.0875-0.32984 0-0.38417l0.29669-0.0554c0.49459-0.0882 0.56056-0.1651 0.56056-1.1754v-3.8894" fill="#61c9b1"/>
<path d="m166.15 50.206c-1.0104 0-1.6372-0.2854-1.8672-0.41699-0.2092-0.242-0.35208-1.0333-0.35208-1.7798 0.0769-0.14358 0.3295-0.15416 0.41769-0.0332 0.21978 0.71367 0.95568 1.7247 1.8898 1.7247 0.81316 0 1.1868-0.56021 1.1868-1.1095 0-0.89006-0.83538-1.4178-1.4944-1.7473-0.79093-0.39511-1.6591-1.0544-1.6591-2.1424-0.0113-1.2411 0.95567-2.0983 2.5488-2.0983 0.36265 0 0.81315 0.0441 1.2527 0.17569 0.14252 0.0441 0.24201 0.0656 0.37359 0.0882 0.0882 0.2413 0.19791 0.83467 0.19791 1.5706-0.0554 0.13229-0.32949 0.14287-0.42898 0.0332-0.18662-0.56057-0.65899-1.3624-1.4496-1.3624-0.72566 0-1.1211 0.47237-1.1211 1.0216 0 0.50588 0.45085 0.96696 1.0001 1.2531l0.7246 0.38418c0.68157 0.3623 1.549 0.99977 1.549 2.2087 0 1.3511-1.1095 2.2299-2.7686 2.2299" fill="#61c9b1"/>
<path d="m186.08 26.157v3.7042h-2.9718v10.416h-3.7042v-10.416h-2.9658v-3.7042h2.9658v-5.3915h3.7042v5.3915h2.9718" fill="#61c9b1"/>
<path d="m92.753 24.239c-1.7371 0-3.1905 0.5849-4.3603 1.7547-1.1705 1.1705-1.7558 2.6247-1.7558 4.361 0 1.7187 0.5902 3.168 1.7695 4.3473 1.1793 1.1793 2.6278 1.7688 4.3466 1.7688 1.7187 0 3.1679-0.58949 4.3473-1.7688 1.1793-1.1793 1.7688-2.6285 1.7688-4.3473 0-1.7184-0.5895-3.1679-1.7688-4.3473-1.1793-1.1786-2.6286-1.7685-4.3473-1.7685zm0-3.7028c2.7425 0 5.0648 0.95109 6.9666 2.8522 1.9015 1.9022 2.8519 4.2238 2.8519 6.9663 0 2.7425-0.95038 5.0648-2.8519 6.9667-1.9018 1.9015-4.2242 2.8518-6.9666 2.8518-2.7425 0-5.0648-0.95038-6.9663-2.8518-1.9018-1.9018-2.8522-4.2242-2.8522-6.9667 0-2.7425 0.95038-5.0641 2.8522-6.9663 1.9015-1.9011 4.2238-2.8522 6.9663-2.8522" fill="#61c9b1"/>
<path d="m117.38 33.151c0 1.9773-0.67734 3.6371-2.032 4.9918-1.3487 1.3487-2.9965 2.026-4.9551 2.032h-1.3427v-3.7042h1.3427c0.89711-6e-3 1.6658-0.32949 2.3065-0.97613 0.65299-0.647 0.97649-1.428 0.97649-2.3435 0-0.91545-0.3235-1.6902-0.97649-2.3312-0.64664-0.64065-1.4277-0.95815-2.3432-0.95815s-1.6902 0.3175-2.3312 0.95815c-0.64065 0.641-0.9578 1.4157-0.9578 2.3312v16.885h-3.7042v-16.885c0-1.977 0.67098-3.6371 2.0136-4.9794 1.3487-1.3427 3.0085-2.0137 4.9795-2.0137 1.9773 0 3.6371 0.67098 4.9918 2.0137 1.3547 1.3423 2.032 3.0025 2.032 4.9794" fill="#61c9b1"/>
<path d="m145.92 31.918v8.3601h-3.7162l-0.0123-8.2257c0-0.6043-0.21343-1.1169-0.64664-1.5501-0.42721-0.42722-0.9458-0.64065-1.5501-0.64065-0.6223 0-1.1472 0.20744-1.5744 0.6283-0.43322 0.42122-0.64665 0.9398-0.64665 1.5624v8.2257h-3.7042v-7.0055c0-0.0854 6e-3 -0.16474 0.0243-0.25012h-0.0184v-6.7857h3.6982v1.0619c0.97614-0.76305 2.1114-1.251 3.405-1.1045 1.1532 0.13405 2.2091 0.72601 3.0268 1.5314 1.1409 1.1289 1.7145 2.5326 1.7145 4.1924" fill="#61c9b1"/>
<path d="m162.32 27.53c0 1.971-0.67733 3.6368-2.0324 4.9914-1.3483 1.3487-3.0145 2.026-4.9914 2.026h-0.0917v6e-3h-1.3423v-3.7042h1.434c0.9151 0 1.6965-0.32949 2.3491-0.97649 0.647-0.64664 0.9705-1.428 0.9705-2.3432 0-0.91546-0.3235-1.6905-0.9705-2.3312-0.65263-0.64065-1.434-0.96415-2.3491-0.96415-0.90946 0-1.6905 0.3235-2.3312 0.96415-0.63465 0.64064-0.95814 1.4157-0.95814 2.3312v12.748h-3.7042v-12.748c0-1.9773 0.67733-3.6371 2.02-4.9795 1.3423-1.3427 3.0021-2.014 4.9735-2.014 1.977 0 3.6431 0.67134 4.9914 2.014 1.355 1.3423 2.0324 3.0021 2.0324 4.9795" fill="#61c9b1"/>
<path d="m176.43 33.151v7.1275h-3.6978v-7.1275c0-0.91545-0.32985-1.6902-0.97649-2.3312-0.647-0.64065-1.428-0.95815-2.3432-0.95815-0.91546 0-1.6905 0.3175-2.3312 0.95815-0.641 0.641-0.96414 1.4157-0.96414 2.3312 0 0.91546 0.32314 1.6965 0.96414 2.3435 0.64065 0.65264 1.4157 0.97613 2.3312 0.97613 0.067 0 0.13405 0 0.20108 6e-3h1.2266v3.7042h-1.3487v-6e-3h-0.079c-1.9773 0-3.6371-0.67733-4.9798-2.032-1.3423-1.3547-2.0136-3.0145-2.0136-4.9918 0-1.977 0.67134-3.6371 2.0136-4.9794 1.3427-1.3427 3.0025-2.0137 4.9798-2.0137 1.971 0 3.6368 0.67098 4.9914 2.0137 1.3547 1.3423 2.026 3.0025 2.026 4.9794" fill="#61c9b1"/>
<path d="m197.69 27.86c-1.1409-1.1352-2.5446-1.7025-4.2104-1.7025-0.7874 0-1.5258 0.13406-2.2214 0.40887v-5.8004h-3.7042v19.512h3.7042v-8.2261c0-0.6223 0.21378-1.1409 0.64699-1.5621 0.42721-0.42086 0.95179-0.62865 1.5744-0.62865 0.60395 0 1.1229 0.21379 1.5498 0.641 0.42721 0.43321 0.64699 0.9458 0.64699 1.5498l0.0243 8.1774v0.0487h3.7042v-8.2261c0-1.6598-0.57361-3.0632-1.7148-4.192" fill="#61c9b1"/>
<path d="m122.5 31.993c0.1524-0.41346 0.39652-0.78352 0.73201-1.1229 0.641-0.64135 1.4157-0.96838 2.3312-0.96838s1.6965 0.32703 2.3432 0.96838c0.33584 0.33937 0.58596 0.70943 0.74471 1.1229zm8.055-3.7938c-1.3547-1.3631-3.0145-2.0415-4.9918-2.0415s-3.6368 0.67839-4.9795 2.0415c-1.3427 1.3571-2.0137 3.0349-2.0137 5.0274 0 1.9985 0.67099 3.6826 2.0137 5.0458 1.3427 1.3695 3.0021 2.0542 4.9795 2.0542 1.7452 0 3.2403-0.53058 4.4976-1.6037l-2.6666-2.6896c-0.53093 0.36407-1.1412 0.54892-1.8309 0.54892-0.91546 0-1.6902-0.32702-2.3312-0.98072-0.24412-0.25294-0.44556-0.53058-0.59796-0.82056h9.8002c0.0614-0.29598 0.10407-0.59831 0.12841-0.91264 0.0183-0.2099 0.0243-0.4258 0.0243-0.6417 0-1.9925-0.67733-3.6703-2.032-5.0274" fill="#61c9b1"/>
</g>
</svg>
